<svg width="36" height="36" viewBox="0 0 36 36" fill="none" xmlns="http://www.w3.org/2000/svg">
<rect width="36" height="36" rx="18" fill="white"/>
<path d="M26.3876 13.1575L18.0001 18L9.60938 13.1497" stroke="#28252F" stroke-width="2" stroke-linecap="round" stroke-linejoin="round"/>
<path d="M18 18V27" stroke="#28252F" stroke-width="2" stroke-linecap="round" stroke-linejoin="round"/>
<path d="M17 8.57735C17.6188 8.22008 18.3812 8.22008 19 8.57735L25.6603 12.4226C26.2791 12.7799 26.6603 13.4402 26.6603 14.1547V21.8453C26.6603 22.5598 26.2791 23.2201 25.6603 23.5774L19 27.4226C18.3812 27.7799 17.6188 27.7799 17 27.4226L10.3397 23.5774C9.72094 23.2201 9.33975 22.5598 9.33975 21.8453V14.1547C9.33975 13.4402 9.72094 12.7799 10.3397 12.4226L17 8.57735Z" stroke="#28252F" stroke-width="2" stroke-linecap="round" stroke-linejoin="round"/>
</svg>
