<svg width="14" height="16" viewBox="0 0 14 16" fill="none" xmlns="http://www.w3.org/2000/svg">
<path fill-rule="evenodd" clip-rule="evenodd" d="M7 9C4.09641 9 2 11.1517 2 13.5V14H12V13.5C12 11.1517 9.90359 9 7 9ZM0 16V13.5C0 9.91015 3.13401 7 7 7C10.866 7 14 9.91015 14 13.5V16H0Z" fill="#221E30"/>
<path fill-rule="evenodd" clip-rule="evenodd" d="M7 6C8.10457 6 9 5.10457 9 4C9 2.89543 8.10457 2 7 2C5.89543 2 5 2.89543 5 4C5 5.10457 5.89543 6 7 6ZM7 8C9.20914 8 11 6.20914 11 4C11 1.79086 9.20914 0 7 0C4.79086 0 3 1.79086 3 4C3 6.20914 4.79086 8 7 8Z" fill="#221E30"/>
</svg>
