<svg width="12" height="7" viewBox="0 0 12 7" fill="none" xmlns="http://www.w3.org/2000/svg">
<path d="M0.295366 1.71945C-0.0984559 1.3261 -0.0984558 0.688359 0.295366 0.295011C0.689189 -0.0983372 1.3277 -0.0983372 1.72152 0.295011L6.71307 5.28055C7.10689 5.6739 7.10689 6.31164 6.71307 6.70499C6.31925 7.09834 5.68074 7.09834 5.28692 6.70499L0.295366 1.71945Z" fill="#5355FD"/>
<path d="M10.2785 0.295163C10.6723 -0.0981855 11.3108 -0.0981856 11.7046 0.295163C12.0985 0.688511 12.0985 1.32625 11.7046 1.7196L6.71307 6.70499C6.31925 7.09834 5.68074 7.09834 5.28692 6.70499C4.89309 6.31164 4.8931 5.67405 5.28693 5.2807L10.2785 0.295163Z" fill="#5355FD"/>
</svg>
