<svg width="36" height="36" viewBox="0 0 36 36" fill="none" xmlns="http://www.w3.org/2000/svg">
<rect width="36" height="36" rx="18" fill="white"/>
<path d="M10 10.5C9.44772 10.5 9 10.9477 9 11.5C9 12.0523 9.44772 12.5 10 12.5V10.5ZM27 12.5C27.5523 12.5 28 12.0523 28 11.5C28 10.9477 27.5523 10.5 27 10.5V12.5ZM10 12.5H27V10.5H10V12.5Z" fill="#28252F"/>
<path d="M14.7596 24.5C14.2323 25.5868 12.8705 26.5 11 26.5C9.12949 26.5 7.76771 25.5868 7.24044 24.5H14.7596Z" fill="#28252F" stroke="#28252F" stroke-width="2"/>
<path d="M7 24.5L10.9048 12.2976C10.9344 12.2049 11.0656 12.2049 11.0952 12.2976L15 24.5" stroke="#28252F" stroke-width="2"/>
<path d="M29.7596 24.5C29.2323 25.5868 27.8705 26.5 26 26.5C24.1295 26.5 22.7677 25.5868 22.2404 24.5H29.7596Z" fill="#28252F" stroke="#28252F" stroke-width="2"/>
<path d="M22 24.5L25.9048 12.2976C25.9344 12.2049 26.0656 12.2049 26.0952 12.2976L30 24.5" stroke="#28252F" stroke-width="2"/>
<circle cx="18.5" cy="11.5" r="1.5" fill="#28252F" stroke="#28252F" stroke-width="2"/>
</svg>
