<svg width="36" height="36" viewBox="0 0 36 36" fill="none" xmlns="http://www.w3.org/2000/svg">
<rect width="36" height="36" rx="18" fill="white"/>
<path d="M25.5 27V25C24.846 25 24.2099 24.7863 23.6885 24.3913C23.1672 23.9964 22.7892 23.4419 22.6121 22.8123C22.435 22.1827 22.4685 21.5125 22.7075 20.9037C22.9465 20.2949 23.3779 19.7809 23.936 19.4399C24.4086 19.1512 24.9501 19 25.5 19C25.5996 19 25.6994 19.005 25.7992 19.015C26.4499 19.0802 27.0616 19.3563 27.5409 19.8012C28.0203 20.2462 28.3411 20.8356 28.4545 21.4797C28.568 22.1238 28.4678 22.7874 28.1693 23.3693M10.5 27V25C9.84597 25 9.20985 24.7863 8.68851 24.3913C8.16717 23.9964 7.78918 23.4419 7.61208 22.8123C7.43498 22.1827 7.46848 21.5125 7.70748 20.9037C7.94648 20.2949 8.37789 19.7809 8.93602 19.4399C9.40858 19.1512 9.95007 19 10.5 19C10.5996 19 10.6994 19.005 10.7992 19.015C11.4499 19.0802 12.0616 19.3563 12.5409 19.8012C13.0203 20.2462 13.3411 20.8356 13.4545 21.4797C13.568 22.1238 13.4678 22.7874 13.1693 23.3693M17.8879 9V11C17.2339 11 16.5978 11.2137 16.0764 11.6087C15.5551 12.0036 15.1771 12.5581 15 13.1877C14.8229 13.8173 14.8564 14.4875 15.0954 15.0963C15.3344 15.7051 15.7658 16.2191 16.3239 16.5601C16.7965 16.8488 17.338 17 17.8879 17C17.9875 17 18.0873 16.995 18.1871 16.985C18.8379 16.9198 19.4495 16.6437 19.9289 16.1988C20.4082 15.7538 20.729 15.1644 20.8425 14.5203C20.9559 13.8762 20.8557 13.2126 20.5572 12.6307M25.5 16V9M10.5 16V9M17.8879 20L17.8879 27" stroke="#28252F" stroke-width="2" stroke-linecap="round" stroke-linejoin="round"/>
</svg>
