<svg width="36" height="36" viewBox="0 0 36 36" fill="none" xmlns="http://www.w3.org/2000/svg">
<rect x="0.6" y="0.6" width="34.8" height="34.8" rx="17.4" fill="white" stroke="#28252F" stroke-width="1.2"/>
<mask id="path-2-inside-1_137_9924" fill="white">
<path d="M4 18C4 25.732 10.268 32 18 32V4C10.268 4 4 10.268 4 18Z"/>
</mask>
<path d="M4 18C4 25.732 10.268 32 18 32V4C10.268 4 4 10.268 4 18Z" fill="#28252F"/>
<path d="M18 32V32.9333H18.9333V32H18ZM18 4H18.9333V3.06667H18V4ZM18 31.0667C10.7835 31.0667 4.93333 25.2165 4.93333 18H3.06667C3.06667 26.2475 9.75255 32.9333 18 32.9333V31.0667ZM18 3.06667C9.75255 3.06667 3.06667 9.75255 3.06667 18H4.93333C4.93333 10.7835 10.7835 4.93333 18 4.93333V3.06667ZM17.0667 4V32H18.9333V4H17.0667Z" fill="#28252F" mask="url(#path-2-inside-1_137_9924)"/>
</svg>
