<svg width="36" height="36" viewBox="0 0 36 36" fill="none" xmlns="http://www.w3.org/2000/svg">
<rect width="36" height="36" rx="18" fill="white"/>
<path d="M12 11H24V9H12V11ZM11 24V15H9V24H11ZM11 15V12H9V15H11ZM25 12V15H27V12H25ZM25 15V24H27V15H25ZM10 16H16V14H10V16ZM16 16H26V14H16V16ZM24 25H16V27H24V25ZM16 25H12V27H16V25ZM15 15V26H17V15H15ZM9 24C9 25.6569 10.3431 27 12 27V25C11.4477 25 11 24.5523 11 24H9ZM25 24C25 24.5523 24.5523 25 24 25V27C25.6569 27 27 25.6569 27 24H25ZM24 11C24.5523 11 25 11.4477 25 12H27C27 10.3431 25.6569 9 24 9V11ZM12 9C10.3431 9 9 10.3431 9 12H11C11 11.4477 11.4477 11 12 11V9Z" fill="#28252F"/>
</svg>
