<svg width="36" height="36" viewBox="0 0 36 36" fill="none" xmlns="http://www.w3.org/2000/svg">
<rect width="36" height="36" rx="18" fill="white"/>
<path d="M13.2929 18.7929C12.9024 19.1834 12.9024 19.8166 13.2929 20.2071C13.6834 20.5976 14.3166 20.5976 14.7071 20.2071L13.2929 18.7929ZM15.2929 21.7929C14.9024 22.1834 14.9024 22.8166 15.2929 23.2071C15.6834 23.5976 16.3166 23.5976 16.7071 23.2071L15.2929 21.7929ZM16.7817 16.7183L16.1335 15.9568C16.1132 15.9741 16.0935 15.9923 16.0746 16.0112L16.7817 16.7183ZM19.2817 19.2183L19.9888 19.9254C20.0077 19.9065 20.0259 19.8868 20.0432 19.8665L19.2817 19.2183ZM25.1216 12.1959L26.0501 12.5673L25.1216 12.1959ZM25.1334 12.1664L24.2049 11.7951L25.1334 12.1664ZM23.2506 11.2123L23.8987 11.9738L23.2506 11.2123ZM23.8041 10.8784L23.4327 9.94988L23.8041 10.8784ZM14.7071 20.2071L17.4888 17.4254L16.0746 16.0112L13.2929 18.7929L14.7071 20.2071ZM17.4298 17.4798L23.8987 11.9738L22.6024 10.4508L16.1335 15.9568L17.4298 17.4798ZM24.0262 12.1013L18.5202 18.5702L20.0432 19.8665L25.5492 13.3976L24.0262 12.1013ZM18.5746 18.5112L15.2929 21.7929L16.7071 23.2071L19.9888 19.9254L18.5746 18.5112ZM16.6947 17.7145C16.968 17.7384 17.4051 17.8587 17.747 18.1132C18.0497 18.3385 18.2817 18.6632 18.2817 19.2183H20.2817C20.2817 17.9481 19.6804 17.0592 18.9413 16.509C18.2416 15.9881 17.4287 15.771 16.8687 15.7221L16.6947 17.7145ZM24.1755 11.8068L24.2049 11.7951L23.4622 9.9381L23.4327 9.94988L24.1755 11.8068ZM24.2049 11.7951L24.1932 11.8245L26.0501 12.5673L26.0619 12.5378L24.2049 11.7951ZM25.5492 13.3976C25.7601 13.1498 25.9293 12.8694 26.0501 12.5673L24.1932 11.8245C24.1529 11.9252 24.0965 12.0187 24.0262 12.1013L25.5492 13.3976ZM24.2049 11.7951V11.7951L26.0619 12.5378C26.7149 10.9052 25.0948 9.28505 23.4622 9.9381L24.2049 11.7951ZM23.8987 11.9738C23.9813 11.9035 24.0748 11.8471 24.1755 11.8068L23.4327 9.94988C23.1306 10.0707 22.8502 10.2399 22.6024 10.4508L23.8987 11.9738Z" fill="#28252F"/>
<path d="M10.7066 24.4805L9.72341 24.663L10.7066 24.4805ZM10.5584 24.855L9.96634 24.0492L10.5584 24.855ZM15 22.7807V23H17V22.7807H15ZM13 25H9.92627V27H13V25ZM11.6898 24.2981L11.4685 23.1057L9.50209 23.4706L9.72341 24.663L11.6898 24.2981ZM10.3385 26.2575L11.1505 25.6609L9.96634 24.0492L9.15439 24.6457L10.3385 26.2575ZM9.72341 24.663C9.67992 24.4287 9.77431 24.1902 9.96634 24.0492L11.1505 25.6609C11.5768 25.3477 11.7864 24.8182 11.6898 24.2981L9.72341 24.663ZM9.92627 25C10.5989 25 10.8806 25.8592 10.3385 26.2575L9.15439 24.6457C8.13947 25.3913 8.66688 27 9.92627 27V25ZM15 23C15 24.1046 14.1046 25 13 25V27C15.2091 27 17 25.2091 17 23H15ZM13.2193 21C14.2028 21 15 21.7972 15 22.7807H17C17 20.6927 15.3073 19 13.2193 19V21ZM13.2193 19C10.8549 19 9.07061 21.1459 9.50209 23.4706L11.4685 23.1057C11.2653 22.0107 12.1057 21 13.2193 21V19Z" fill="#28252F"/>
</svg>
