<svg width="29" height="29" viewBox="0 0 29 29" fill="none" xmlns="http://www.w3.org/2000/svg">
<path d="M24.1667 19.3334L12.0834 19.3334C10.7487 19.3334 9.66675 18.2514 9.66675 16.9167L9.66675 4.83337" stroke="#28252F" stroke-width="2.41667" stroke-linecap="round" stroke-linejoin="round"/>
<path fill-rule="evenodd" clip-rule="evenodd" d="M20.5417 15.7084V12.0834C20.5417 10.0813 18.9187 8.45837 16.9167 8.45837H13.2917V10.875H16.9167C17.584 10.875 18.125 11.416 18.125 12.0834V15.7084H20.5417ZM10.875 10.875V8.45837H4.83333C4.16599 8.45837 3.625 8.99936 3.625 9.66671C3.625 10.3341 4.16599 10.875 4.83333 10.875H10.875ZM18.125 18.125L20.5417 18.125V24.1667C20.5417 24.8341 20.0007 25.375 19.3333 25.375C18.666 25.375 18.125 24.8341 18.125 24.1667V18.125Z" fill="#28252F"/>
</svg>
