<svg width="36" height="36" viewBox="0 0 36 36" fill="none" xmlns="http://www.w3.org/2000/svg">
<rect width="36" height="36" rx="18" fill="white"/>
<path d="M17 18C17 18 14 15 13.12 14.12C13.12 14.12 12.6569 15 11 15C9.34315 15 8 13.6569 8 12C8 10.3431 9.34315 9 11 9C12.1921 9 13.2218 9.69534 13.7057 10.7026M17 18L13.1272 21.8846C13.6851 22.4293 14 23.1586 14 24C14 25.6569 12.6569 27 11 27C9.34315 27 8 25.6569 8 24C8 22.7563 8.75682 21.6893 9.83505 21.2346M17 18C18.6265 16.3735 24.7784 7.77836 28 11L21 18L28 25C24.8929 28.1071 20.5205 21.6894 19 20" stroke="#28252F" stroke-width="2" stroke-linecap="round" stroke-linejoin="round"/>
</svg>
