<svg width="20" height="20" viewBox="0 0 20 20" fill="none" xmlns="http://www.w3.org/2000/svg">
<path d="M10 19C14.9706 19 19 14.9706 19 10C19 5.02944 14.9706 1 10 1C5.02944 1 1 5.02944 1 10C1 14.9706 5.02944 19 10 19Z" stroke="white" stroke-width="1.8" stroke-linecap="round" stroke-linejoin="round"/>
<path d="M10 14.5H10.009" stroke="white" stroke-width="1.8" stroke-linecap="round" stroke-linejoin="round"/>
<path d="M7.38086 7.3C7.59245 6.6985 8.0101 6.1913 8.55982 5.86822C9.10954 5.54514 9.75587 5.42704 10.3843 5.53484C11.0128 5.64264 11.5828 5.96937 11.9934 6.45718C12.4041 6.94498 12.6288 7.56237 12.6279 8.2C12.6279 10.3192 9.99986 9.98362 9.99986 11.8" stroke="white" stroke-width="1.8" stroke-linecap="round" stroke-linejoin="round"/>
</svg>
