<svg width="65" height="64" viewBox="0 0 65 64" fill="none" xmlns="http://www.w3.org/2000/svg">
<path d="M17.6481 13.8638L36.3305 8.85783C43.1387 7.03358 48.0705 10.0096 49.9667 17.0863L55.1652 36.4874C57.0614 43.5642 54.2784 48.6073 47.4702 50.4316L28.7877 55.4375C21.9795 57.2618 17.0656 54.281 15.1694 47.2043L9.97086 27.8032C8.07464 20.7264 10.8399 15.688 17.6481 13.8638Z" fill="url(#paint0_linear_27121_334)"/>
<g filter="url(#filter0_f_27121_334)">
<path d="M22.4707 19.8513L35.1545 16.4527C39.7767 15.2142 43.0885 17.0987 44.3116 21.6633L47.6647 34.1773C48.8878 38.7419 46.9619 42.0299 42.3397 43.2684L29.6559 46.667C25.0337 47.9055 21.734 46.0178 20.5109 41.4532L17.1578 28.9392C15.9347 24.3745 17.8485 21.0898 22.4707 19.8513Z" fill="#30AD31" fill-opacity="0.5"/>
</g>
<defs>
<filter id="filter0_f_27121_334" x="0.796875" y="0.0808105" width="63.2275" height="62.9578" filterUnits="userSpaceOnUse" color-interpolation-filters="sRGB">
<feFlood flood-opacity="0" result="BackgroundImageFix"/>
<feBlend mode="normal" in="SourceGraphic" in2="BackgroundImageFix" result="shape"/>
<feGaussianBlur stdDeviation="8" result="effect1_foregroundBlur_27121_334"/>
</filter>
<linearGradient id="paint0_linear_27121_334" x1="7.00028" y1="16.7168" x2="45.353" y2="41.9775" gradientUnits="userSpaceOnUse">
<stop stop-color="#9BF763"/>
<stop offset="1" stop-color="#26AB5B"/>
</linearGradient>
</defs>
</svg>
