<svg width="60" height="59" viewBox="0 0 60 59" fill="none" xmlns="http://www.w3.org/2000/svg">
<g filter="url(#filter0_b_26956_1438)">
<path d="M50.7698 22.7765C49.9951 21.8688 49.0613 21.1123 48.0394 20.499C45.798 19.1317 43.1661 18.5655 40.5416 18.8605C40.4629 18.6613 40.3441 18.4556 40.2395 18.2629C40.1368 18.0669 39.9901 17.6506 39.8249 17.3752L39.3748 16.7306C39.1578 16.358 38.8971 16.0253 38.6082 15.6955C38.5942 15.6453 38.5661 15.5821 38.5197 15.5125L38.4242 15.4551C37.6624 14.5552 36.7814 13.7841 35.7796 13.141L35.6015 13.034C35.148 12.7619 34.6777 12.5215 34.1827 12.3147L33.9884 12.1981C33.4646 11.9697 32.9124 11.7924 32.3455 11.6725C25.1162 10.0234 19.0257 15.2897 17.4149 22.1212C16.6931 25.673 16.7677 29.3327 17.6267 32.8199C18.9558 37.7591 20.7935 42.5188 23.1203 47.0434L23.3849 47.5569L23.9366 47.5553C29.0206 47.4565 34.0659 46.8278 39.0108 45.6762C42.5068 44.8027 45.7797 43.13 48.5583 40.8126C53.7985 36.1594 55.5811 28.3076 50.7698 22.7765Z" fill="url(#paint0_linear_26956_1438)"/>
</g>
<g opacity="0.5" filter="url(#filter1_f_26956_1438)">
<path d="M40.144 25.2195C39.6551 24.6467 39.0659 24.1693 38.421 23.7823C37.0066 22.9194 35.3458 22.5621 33.6896 22.7483C33.6399 22.6226 33.5649 22.4928 33.4989 22.3712C33.4341 22.2475 33.3416 21.9848 33.2374 21.8111L32.9533 21.4042C32.8163 21.1691 32.6518 20.9592 32.4695 20.7511C32.4607 20.7194 32.4429 20.6795 32.4137 20.6356L32.3534 20.5994C31.8727 20.0315 31.3168 19.5449 30.6846 19.1391L30.5722 19.0716C30.286 18.8998 29.9892 18.7481 29.6769 18.6177L29.5543 18.5441C29.2237 18.3999 28.8752 18.2881 28.5175 18.2124C23.9556 17.1717 20.1122 20.495 19.0957 24.8059C18.6402 27.0473 18.6873 29.3567 19.2293 31.5573C20.0681 34.6741 21.2277 37.6776 22.6961 40.5329L22.863 40.8569L23.2111 40.8559C26.4194 40.7936 29.6032 40.3968 32.7236 39.6701C34.9297 39.1189 36.995 38.0633 38.7485 36.601C42.0552 33.6646 43.1801 28.7098 40.144 25.2195Z" fill="#EE2965"/>
</g>
<g filter="url(#filter2_b_26956_1438)">
<path d="M46.2291 6.21276C46.0409 6.02794 45.8207 5.8795 45.5838 5.7643C45.0638 5.50676 44.4734 5.43315 43.9013 5.54902C43.8802 5.50668 43.85 5.4637 43.8232 5.42329C43.7968 5.38214 43.7565 5.29334 43.7148 5.23592L43.6031 5.10272C43.5481 5.02491 43.4843 4.95672 43.4143 4.88972C43.4102 4.87893 43.4028 4.86557 43.3913 4.85114L43.3691 4.84037C43.184 4.65701 42.9751 4.50434 42.742 4.38218L42.7007 4.3621C42.5956 4.31098 42.4874 4.26717 42.3744 4.23126L42.3294 4.20935C42.2096 4.16922 42.0846 4.14091 41.9575 4.1255C40.3339 3.90267 39.0952 5.18021 38.8731 6.71544C38.7831 7.51139 38.8705 8.31566 39.1272 9.06673C39.5157 10.1283 40.0126 11.1406 40.6126 12.0916L40.6808 12.1995L40.8022 12.1884C41.9196 12.0681 43.0181 11.8318 44.0845 11.4823C44.8372 11.2222 45.5253 10.7905 46.0921 10.2264C47.1555 9.10033 47.3956 7.33713 46.2291 6.21276Z" fill="url(#paint1_linear_26956_1438)"/>
</g>
<defs>
<filter id="filter0_b_26956_1438" x="3.9231" y="-1.63223" width="62.656" height="62.1891" filterUnits="userSpaceOnUse" color-interpolation-filters="sRGB">
<feFlood flood-opacity="0" result="BackgroundImageFix"/>
<feGaussianBlur in="BackgroundImage" stdDeviation="6.5"/>
<feComposite in2="SourceAlpha" operator="in" result="effect1_backgroundBlur_26956_1438"/>
<feBlend mode="normal" in="SourceGraphic" in2="effect1_backgroundBlur_26956_1438" result="shape"/>
</filter>
<filter id="filter1_f_26956_1438" x="0.7854" y="0.0201111" width="59.1313" height="58.8368" filterUnits="userSpaceOnUse" color-interpolation-filters="sRGB">
<feFlood flood-opacity="0" result="BackgroundImageFix"/>
<feBlend mode="normal" in="SourceGraphic" in2="BackgroundImageFix" result="shape"/>
<feGaussianBlur stdDeviation="9" result="effect1_foregroundBlur_26956_1438"/>
</filter>
<filter id="filter2_b_26956_1438" x="25.8386" y="-8.89987" width="34.1641" height="34.0993" filterUnits="userSpaceOnUse" color-interpolation-filters="sRGB">
<feFlood flood-opacity="0" result="BackgroundImageFix"/>
<feGaussianBlur in="BackgroundImage" stdDeviation="6.5"/>
<feComposite in2="SourceAlpha" operator="in" result="effect1_backgroundBlur_26956_1438"/>
<feBlend mode="normal" in="SourceGraphic" in2="effect1_backgroundBlur_26956_1438" result="shape"/>
</filter>
<linearGradient id="paint0_linear_26956_1438" x1="33.7184" y1="35.6339" x2="-2.73278" y2="33.17" gradientUnits="userSpaceOnUse">
<stop stop-color="#FF759F"/>
<stop offset="1" stop-color="#FF196E"/>
</linearGradient>
<linearGradient id="paint1_linear_26956_1438" x1="42.7245" y1="9.37413" x2="34.6518" y2="9.5387" gradientUnits="userSpaceOnUse">
<stop stop-color="#FF759F"/>
<stop offset="1" stop-color="#FF196E"/>
</linearGradient>
</defs>
</svg>
