<svg width="76" height="74" viewBox="0 0 76 74" fill="none" xmlns="http://www.w3.org/2000/svg">
<path d="M43.5821 6.84797L18.3848 13.5996C9.2025 16.06 5.39387 22.656 7.85403 31.8374L14.5986 57.0084C17.0587 66.1898 23.6551 69.9978 32.8374 67.5375L58.0347 60.7859C67.217 58.3255 71.0017 51.7359 68.5415 42.5544L61.797 17.3834C59.3368 8.20201 52.7644 4.38758 43.5821 6.84797Z" fill="url(#paint0_linear_26956_3232)"/>
<g opacity="0.5" filter="url(#filter0_f_26956_3232)">
<path d="M41.9872 17.9974L25.3326 22.46C19.2634 24.0862 16.7016 28.28 18.2492 34.0558L22.492 49.8902C24.0396 55.666 28.3551 58.017 34.4243 56.3908L51.0789 51.9282C57.1481 50.302 59.6941 46.1124 58.1465 40.3366L53.9036 24.5022C52.356 18.7265 48.0563 16.3712 41.9872 17.9974Z" fill="#E31352"/>
</g>
<defs>
<filter id="filter0_f_26956_3232" x="0.807861" y="0.494336" width="74.7812" height="73.4" filterUnits="userSpaceOnUse" color-interpolation-filters="sRGB">
<feFlood flood-opacity="0" result="BackgroundImageFix"/>
<feBlend mode="normal" in="SourceGraphic" in2="BackgroundImageFix" result="shape"/>
<feGaussianBlur stdDeviation="8.5" result="effect1_foregroundBlur_26956_3232"/>
</filter>
<linearGradient id="paint0_linear_26956_3232" x1="43.1368" y1="39.7437" x2="1.91509" y2="75.4917" gradientUnits="userSpaceOnUse">
<stop stop-color="#FF759F"/>
<stop offset="1" stop-color="#FF196E"/>
</linearGradient>
</defs>
</svg>
