<svg width="78" height="76" viewBox="0 0 78 76" fill="none" xmlns="http://www.w3.org/2000/svg">
<path d="M37.3122 6.21887L14.7531 15.0885C5.93248 18.5565 2.43479 27.0817 6.05629 36.2926L14.4144 57.5507C18.0256 66.7356 26.3929 70.5958 35.2136 67.1278L57.7726 58.2582C66.5933 54.7901 70.0649 46.2752 66.4537 37.0903L58.0956 15.8322C54.4741 6.62125 46.1328 2.75083 37.3122 6.21887Z" fill="url(#paint0_linear_26956_925)"/>
<g opacity="0.5" filter="url(#filter0_f_26956_925)">
<path d="M39.4298 15.5618L22.5341 22.1724C16.4056 24.5702 14.0719 29.1216 16.1873 34.5281L23.3518 52.8395C25.5018 58.3347 30.2768 60.023 36.4053 57.6252L53.301 51.0146C59.5283 48.5781 61.7889 44.1371 59.6389 38.6419L52.4744 20.3305C50.3591 14.9239 45.6571 13.1253 39.4298 15.5618Z" fill="#30AD31"/>
</g>
<defs>
<filter id="filter0_f_26956_925" x="-1.57617" y="-2.50493" width="79.0076" height="78.1926" filterUnits="userSpaceOnUse" color-interpolation-filters="sRGB">
<feFlood flood-opacity="0" result="BackgroundImageFix"/>
<feBlend mode="normal" in="SourceGraphic" in2="BackgroundImageFix" result="shape"/>
<feGaussianBlur stdDeviation="8.5" result="effect1_foregroundBlur_26956_925"/>
</filter>
<linearGradient id="paint0_linear_26956_925" x1="52.0393" y1="0.42857" x2="32.2193" y2="57.7688" gradientUnits="userSpaceOnUse">
<stop stop-color="#9BF763"/>
<stop offset="1" stop-color="#26AB5B"/>
</linearGradient>
</defs>
</svg>
