<svg width="65" height="63" viewBox="0 0 65 63" fill="none" xmlns="http://www.w3.org/2000/svg">
<path d="M43.7039 28.5248C43.3494 29.2557 43.3775 30.1157 43.777 30.8235L49.4531 40.5494C49.9335 41.374 49.8865 42.4028 49.3339 43.1819C48.803 43.9748 47.8632 44.3892 46.9196 44.2537L35.7654 42.7815C35.3762 42.7267 34.9804 42.7655 34.6063 42.8899L34.0328 43.0989C33.8447 43.201 33.6731 43.3355 33.5308 43.4976L25.9464 51.8262C25.5678 52.2279 25.0731 52.5017 24.5288 52.6066C23.1896 52.8262 21.9187 51.9373 21.665 50.6034L19.7536 39.5054C19.6015 38.7001 19.0682 38.0195 18.3234 37.6797L7.98231 33.0583C7.11724 32.6712 6.55566 31.821 6.54148 30.8745C6.51961 29.9331 7.02043 29.0578 7.84428 28.6017L17.8055 23.2425C18.5754 22.8684 19.1005 22.1256 19.198 21.275L20.3693 10.0842C20.4022 9.83248 20.473 9.58611 20.5842 9.35857L20.7207 9.14102C20.7801 8.99473 20.8612 8.86208 20.9611 8.74174L21.161 8.57302L21.4667 8.29376L22.3576 7.96904C23.1834 7.76156 24.0574 7.98239 24.6826 8.55999L32.8262 16.3077C33.417 16.8763 34.2502 17.1168 35.0523 16.9563L46.1258 14.6486C47.0609 14.4517 48.0274 14.7946 48.63 15.5339C49.2165 16.2814 49.3168 17.2997 48.8879 18.1488L43.7039 28.5248Z" fill="url(#paint0_linear_26956_1431)"/>
<g opacity="0.5" filter="url(#filter0_f_26956_1431)">
<path d="M33.9505 22.8968C29.1074 22.8968 25.1768 26.8283 25.1768 31.6705C25.1768 36.5145 29.1074 40.4442 33.9505 40.4442C38.8023 40.4442 42.7242 36.5145 42.7242 31.6705C42.7242 26.8283 38.8023 22.8968 33.9505 22.8968Z" fill="#FF3D22"/>
</g>
<defs>
<filter id="filter0_f_26956_1431" x="3.12687" y="0.846897" width="61.6471" height="61.6472" filterUnits="userSpaceOnUse" color-interpolation-filters="sRGB">
<feFlood flood-opacity="0" result="BackgroundImageFix"/>
<feBlend mode="normal" in="SourceGraphic" in2="BackgroundImageFix" result="shape"/>
<feGaussianBlur stdDeviation="11.0249" result="effect1_foregroundBlur_26956_1431"/>
</filter>
<linearGradient id="paint0_linear_26956_1431" x1="9.45549" y1="25.118" x2="55.9327" y2="68.6645" gradientUnits="userSpaceOnUse">
<stop stop-color="#FFA78F"/>
<stop offset="1" stop-color="#F23E2C"/>
</linearGradient>
</defs>
</svg>
