<svg width="36" height="36" viewBox="0 0 36 36" fill="none" xmlns="http://www.w3.org/2000/svg">
<rect x="0.6" y="0.6" width="34.8" height="34.8" rx="17.4" fill="white" stroke="white" stroke-width="1.2"/>
<path d="M27.0009 18.79C26.8436 20.4922 26.2047 22.1144 25.1591 23.4668C24.1135 24.8192 22.7044 25.8458 21.0966 26.4265C19.4888 27.0073 17.7489 27.1181 16.0804 26.7461C14.4119 26.3741 12.8839 25.5345 11.6751 24.3258C10.4663 23.117 9.62682 21.589 9.25479 19.9205C8.88275 18.252 8.99359 16.5121 9.57434 14.9043C10.1551 13.2965 11.1817 11.8874 12.5341 10.8418C13.8865 9.79614 15.5087 9.15731 17.2109 9C16.5514 9.89217 16.1184 10.9213 15.9369 12C15.8442 12.5514 15.8172 13.1158 15.8594 13.6814C15.9841 15.3534 16.7047 16.9251 17.8903 18.1106C19.0758 19.2961 20.6475 20.0168 22.3195 20.1415C22.8851 20.1836 23.4494 20.1567 24.0009 20.0639" stroke="#28252F" stroke-width="2" stroke-linecap="round" stroke-linejoin="round"/>
</svg>
