<svg width="36" height="36" viewBox="0 0 36 36" fill="none" xmlns="http://www.w3.org/2000/svg">
<rect width="36" height="36" rx="18" fill="white"/>
<circle cx="26" cy="22" r="1" fill="#28252F"/>
<circle cx="26" cy="18" r="1" fill="#28252F"/>
<circle cx="26" cy="26" r="1" fill="#28252F"/>
<circle cx="22" cy="18" r="1" fill="#28252F"/>
<circle cx="22" cy="26" r="1" fill="#28252F"/>
<circle cx="22" cy="10" r="1" fill="#28252F"/>
<circle cx="26" cy="10" r="1" fill="#28252F"/>
<circle cx="26" cy="14" r="1" fill="#28252F"/>
<circle cx="18" cy="18" r="1" fill="#28252F"/>
<circle cx="18" cy="26" r="1" fill="#28252F"/>
<circle cx="14" cy="18" r="1" fill="#28252F"/>
<circle cx="14" cy="26" r="1" fill="#28252F"/>
<circle cx="10" cy="18" r="1" fill="#28252F"/>
<circle cx="10" cy="26" r="1" fill="#28252F"/>
<circle cx="10" cy="14" r="1" fill="#28252F"/>
<circle cx="10" cy="10" r="1" fill="#28252F"/>
<circle cx="14" cy="10" r="1" fill="#28252F"/>
<circle cx="18" cy="10" r="1" fill="#28252F"/>
<circle cx="18" cy="14" r="1" fill="#28252F"/>
<circle cx="18" cy="22" r="1" fill="#28252F"/>
<circle cx="10" cy="22" r="1" fill="#28252F"/>
</svg>
