<svg width="36" height="36" viewBox="0 0 36 36" fill="none" xmlns="http://www.w3.org/2000/svg">
<rect width="36" height="36" rx="18" fill="white"/>
<path d="M25 12V15.3333H27V12H25ZM11 15.3333V12H9V15.3333H11ZM26 14.3333H20.6667V16.3333H26V14.3333ZM20.6667 14.3333H15.3333V16.3333H20.6667V14.3333ZM15.3333 14.3333H10V16.3333H15.3333V14.3333ZM25 15.3333V20.6667H27V15.3333H25ZM25 20.6667V24H27V20.6667H25ZM11 24V20.6667H9V24H11ZM11 20.6667V15.3333H9V20.6667H11ZM26 19.6667H20.6667V21.6667H26V19.6667ZM20.6667 19.6667H15.3333V21.6667H20.6667V19.6667ZM15.3333 19.6667H10V21.6667H15.3333V19.6667ZM12 11H15.3333V9H12V11ZM12 27H15.3333V25H12V27ZM14.3333 10V15.3333H16.3333V10H14.3333ZM14.3333 15.3333V20.6667H16.3333V15.3333H14.3333ZM14.3333 20.6667V26H16.3333V20.6667H14.3333ZM15.3333 11H20.6667V9H15.3333V11ZM20.6667 11H24V9H20.6667V11ZM15.3333 27H20.6667V25H15.3333V27ZM20.6667 27H24V25H20.6667V27ZM19.6667 10V15.3333H21.6667V10H19.6667ZM19.6667 15.3333V20.6667H21.6667V15.3333H19.6667ZM19.6667 20.6667V26H21.6667V20.6667H19.6667ZM9 24C9 25.6569 10.3431 27 12 27V25C11.4477 25 11 24.5523 11 24H9ZM25 24C25 24.5523 24.5523 25 24 25V27C25.6569 27 27 25.6569 27 24H25ZM27 12C27 10.3431 25.6569 9 24 9V11C24.5523 11 25 11.4477 25 12H27ZM11 12C11 11.4477 11.4477 11 12 11V9C10.3431 9 9 10.3431 9 12H11Z" fill="#28252F"/>
</svg>
