<svg width="15" height="14" viewBox="0 0 15 14" fill="none" xmlns="http://www.w3.org/2000/svg">
<path fill-rule="evenodd" clip-rule="evenodd" d="M10.6678 12.942C11.5065 13.309 11.8211 12.5401 11.8211 12.5401L14.0403 1.39168C14.0228 0.640292 13.0093 1.09462 13.0093 1.09462L0.585255 5.96988C0.585255 5.96988 -0.00886325 6.17957 0.0435589 6.54653C0.0959811 6.91348 0.567781 7.08822 0.567781 7.08822L3.69564 8.13667C3.69564 8.13667 4.63924 11.2296 4.83145 11.8237C5.00619 12.4003 5.16346 12.4178 5.16346 12.4178C5.3382 12.4877 5.49547 12.3654 5.49547 12.3654L7.52246 10.5306L10.6678 12.942ZM11.2093 3.36622C11.2093 3.36622 11.6461 3.10411 11.6286 3.36622C11.6286 3.36622 11.6985 3.40117 11.4714 3.64581C11.2617 3.8555 6.31653 8.29391 5.65252 8.88803C5.60009 8.92298 5.56515 8.9754 5.56515 9.04529L5.37293 10.6879C5.33798 10.8626 5.11082 10.8801 5.0584 10.7228L4.23712 8.0318C4.20217 7.92695 4.23712 7.80464 4.34196 7.73474L11.2093 3.36622Z" fill="#5355FD"/>
</svg>
