<svg width="36" height="36" viewBox="0 0 36 36" fill="none" xmlns="http://www.w3.org/2000/svg">
<rect width="36" height="36" rx="18" fill="white"/>
<path d="M9.80383 9H12.9605M27.8421 24.3325C27.8421 24.8109 27.6521 25.2698 27.3138 25.608C26.9755 25.9463 26.5167 26.1364 26.0383 26.1364H9.80383C9.32542 26.1364 8.86661 25.9463 8.52833 25.608C8.19005 25.2698 8 24.8109 8 24.3325V13.5096C8 12.5133 8.8076 11.7057 9.80383 11.7057H26.0383C26.5167 11.7057 26.9755 11.8958 27.3138 12.2341C27.6521 12.5724 27.8421 13.0312 27.8421 13.5096V24.3325Z" stroke="#28252F" stroke-width="2" stroke-linecap="round" stroke-linejoin="round"/>
<path d="M14.8105 20.7469C15.2086 21.4253 15.8174 21.955 16.5443 22.2553C17.2712 22.5557 18.0763 22.6103 18.8371 22.4108C19.5979 22.2113 20.2727 21.7687 20.7586 21.1503C21.2446 20.5319 21.5152 19.7716 21.5292 18.9852C21.5431 18.1988 21.2997 17.4294 20.836 16.7942C20.3723 16.1589 19.7137 15.6925 18.9605 15.4662C18.2073 15.2398 17.4007 15.2657 16.6636 15.5401C15.9265 15.8145 15.2993 16.3222 14.8774 16.986" stroke="#28252F" stroke-width="2" stroke-linecap="round" stroke-linejoin="round"/>
</svg>
